# xmcd CD database file
#
# Track frame offsets:
#	150
#	13252
#	32147
#	54597
#	73221
#	85427
#	107120
#	121287
#	144292
#	166937
#	199151
#	221439
#	241128
#	260951
#	277058
#	293229
#	310470
#	327081
#	340574
#
# Disc length: 4789 seconds
#
# Revision: 19
# Processed by: cddbd v1.5.2PL0 Copyright (c) Steve Scherf et al.
# Submitted via: CDex 2.21
#
DISCID=2812b313
DTITLE=Eric Clapton - Complete Clapton Disc 1
DYEAR=2007
DGENRE=Rock/Pop
TTITLE0=Cream - I feel free
TTITLE1=Cream - Sunshine of your love
TTITLE2=Cream - White room
TTITLE3=Cream - Crossroads [live at Winterland]
TTITLE4=Cream - Badge
TTITLE5=Blind Faith - Presence of the lord
TTITLE6=After midnight
TTITLE7=Let it rain
TTITLE8=Derek and The Dominos - Bell bottom blues
TTITLE9=Derek and The Dominos - Layla
TTITLE10=Let it grow
TTITLE11=I shot the sheriff
TTITLE12=Knockin' on heaven's door
TTITLE13=Hello old friend
TTITLE14=Cocaine
TTITLE15=Lay down Sally
TTITLE16=Wonderful tonight
TTITLE17=Promises
TTITLE18=I can't stand it
EXTD=YEAR: 2007
EXTT0=YEAR: 1966
EXTT1=YEAR: 1967
EXTT2=YEAR: 1968
EXTT3=YEAR: 1968
EXTT4=YEAR: 1969
EXTT5=YEAR: 1969
EXTT6=YEAR: 1970
EXTT7=YEAR: 1970
EXTT8=YEAR: 1970
EXTT9=YEAR: 1970
EXTT10=YEAR: 1974
EXTT11=YEAR: 1974
EXTT12=YEAR: 1975
EXTT13=YEAR: 1976
EXTT14=YEAR: 1977
EXTT15=YEAR: 1977
EXTT16=YEAR: 1977
EXTT17=YEAR: 1978
EXTT18=YEAR: 1981
PLAYORDER=
